<svg xmlns="http://www.w3.org/2000/svg" width="256" height="256" viewBox="0 0 100 100"><rect width="100" height="100" rx="20" fill="#4a4a4a"></rect><path d="M45.23 78.53L45.23 78.53Q44.15 78.98 42.71 79.20Q41.27 79.43 39.83 79.43L39.83 79.43Q38.66 77.18 37.94 75.78Q37.22 74.39 36.77 73.94L36.77 73.94Q35.69 72.68 34.38 72.05Q33.08 71.42 31.37 71.42L31.37 71.42Q30.11 71.42 28.49 71.73Q26.87 72.05 23.27 73.13L23.27 73.13Q19.31 74.39 17.33 74.75Q15.35 75.11 13.73 75.11L13.73 75.11Q8.87 75.11 5.99 71.96Q3.11 68.81 3.11 63.68L3.11 63.68Q3.11 60.89 4.05 57.60Q5 54.32 6.71 51.17L6.71 51.17Q8.06 51.26 9.18 51.62Q10.31 51.98 11.21 52.61L11.21 52.61Q10.04 54.41 9.32 57.16Q8.60 59.90 8.60 62.15L8.60 62.15Q8.60 65.30 10.22 66.97Q11.84 68.63 14.72 68.63L14.72 68.63Q15.89 68.63 17.46 68.31Q19.04 68 22.37 66.92L22.37 66.92Q25.88 65.75 27.63 65.39Q29.39 65.03 30.74 65.03L30.74 65.03Q33.89 65.03 36.05 66.88Q38.21 68.72 39.74 72.77L39.74 72.77Q40.82 64.94 41.45 54.23Q42.08 43.52 42.08 32.09L42.08 32.09Q42.08 28.85 40.68 27.00Q39.29 25.16 36.86 25.16L36.86 25.16Q32.27 25.16 27.05 30.78Q21.83 36.41 21.83 41.72L21.83 41.72Q21.83 44.15 23.13 45.45Q24.44 46.76 26.78 46.76L26.78 46.76Q28.67 46.76 30.47 45.81Q32.27 44.87 33.80 42.98L33.80 42.98Q34.07 43.34 34.20 43.92Q34.34 44.51 34.34 45.41L34.34 45.41Q34.34 46.58 34.07 47.75Q33.80 48.92 33.26 49.82L33.26 49.82Q31.73 51.17 29.75 51.89Q27.77 52.61 25.61 52.61L25.61 52.61Q21.02 52.61 18.14 49.82Q15.26 47.03 15.26 42.44L15.26 42.44Q15.26 38.84 17.02 35.06Q18.77 31.28 21.92 27.95L21.92 27.95Q25.16 24.53 28.94 22.55Q32.72 20.57 36.05 20.57L36.05 20.57Q41 20.57 44.33 24.39Q47.66 28.22 47.66 34.07L47.66 34.07Q47.66 46.85 47.07 57.78Q46.49 68.72 45.23 78.53ZM88.88 59.72L88.88 59.72Q88.88 63.95 89.42 68.45Q89.96 72.95 91.04 77.63L91.04 77.63Q89.87 78.17 88.38 78.62Q86.90 79.07 85.46 79.34L85.46 79.34Q84.56 75.56 84.06 71.28Q83.57 67.01 83.57 62.33L83.57 62.33Q83.57 57.20 84.16 52.25Q84.74 47.30 85.82 43.16L85.82 43.16Q79.34 47.75 73.26 54.27Q67.19 60.80 63.59 67.10L63.59 67.10Q61.79 66.74 60.03 66.02Q58.28 65.30 57.47 64.49L57.47 64.49Q60.08 55.67 61.65 46.13Q63.23 36.59 63.50 28.22L63.50 28.22Q60.80 28.49 58.23 28.94Q55.67 29.39 53.42 29.93L53.42 29.93Q53.24 29.39 53.10 28.53Q52.97 27.68 52.97 26.87L52.97 26.87Q52.97 26.24 53.10 25.65Q53.24 25.07 53.42 24.62L53.42 24.62Q57.65 23.36 63.86 22.59Q70.07 21.83 76.10 21.83L76.10 21.83Q81.77 21.83 87.62 22.64Q93.47 23.45 96.53 24.62L96.53 24.62Q96.71 24.98 96.80 25.52Q96.89 26.06 96.89 26.78L96.89 26.78Q96.89 27.86 96.80 28.67Q96.71 29.48 96.53 29.93L96.53 29.93Q92.93 28.85 87.08 28.17Q81.23 27.50 75.65 27.50L75.65 27.50Q73.67 27.50 71.73 27.59Q69.80 27.68 67.91 27.77L67.91 27.77Q67.91 28.40 67.91 29.03Q67.91 29.66 67.91 30.29L67.91 30.29Q67.91 36.05 67.28 42.35Q66.65 48.65 65.57 54.23L65.57 54.23Q70.34 48.29 75.60 43.56Q80.87 38.84 86.45 35.42L86.45 35.42Q88.16 36.23 89.47 37.35Q90.77 38.48 91.85 40.28L91.85 40.28Q90.41 44.87 89.64 49.77Q88.88 54.68 88.88 59.72Z" fill="#fff"></path></svg>